# xmcd
#
# Track frame offsets: 
#        150
#        13230
#        25481
#        39562
#        51596
#        67603
#        80019
#        91418
#        118381
#        140936
#
# Disc length: 2172 seconds
#
# Revision: 0
# Processed by: cddbd v1.5.1PL2 Copyright (c) Steve Scherf et al.
# Submitted via: ExactAudioCopy v0.95b3
#
DISCID=93087a0a
DTITLE=James, Etta - R and B Soul
DYEAR=2006
DGENRE=blues
TTITLE0=At Last
TTITLE1=The Wallflower (Roll With Me Henry)
TTITLE2=All I Could Do Was Cry
TTITLE3=Something's God A Hold On Me
TTITLE4=Trust In Me
TTITLE5=Pushover
TTITLE6=Tell Mama
TTITLE7=Baby What You Want Me To Do
TTITLE8=Respect Yourself
TTITLE9=I'd Rather Go Blind
EXTD=
EXTT0=
EXTT1=
EXTT2=
EXTT3=
EXTT4=
EXTT5=
EXTT6=
EXTT7=
EXTT8=
EXTT9=
PLAYORDER=
